<?xml version="1.0" encoding="utf-8"?>
<!-- Generator: Adobe Illustrator 27.7.0, SVG Export Plug-In . SVG Version: 6.00 Build 0)  -->
<svg version="1.1" id="Layer_1" xmlns="http://www.w3.org/2000/svg"
  xmlns:xlink="http://www.w3.org/1999/xlink" x="0px" y="0px"
  viewBox="0 0 512 512" style="enable-background:new 0 0 512 512;" xml:space="preserve">
<g fill="#EFEFEF">
	<path d="M182.86,438.86c0.02,40.41,32.74,73.13,73.14,73.14c40.41-0.02,73.13-32.74,73.14-73.14
		c-0.02-40.41-32.74-73.13-73.14-73.14C215.59,365.73,182.87,398.45,182.86,438.86c0,13.47,10.92,24.38,24.38,24.38
		c13.47,0,24.38-10.92,24.38-24.38c0.02-13.46,10.93-24.36,24.38-24.38c13.46,0.02,24.36,10.93,24.38,24.38
		c-0.02,13.46-10.93,24.36-24.38,24.38c-13.46-0.02-24.36-10.93-24.38-24.38c0-13.47-10.92-24.38-24.38-24.38
		C193.77,414.48,182.86,425.39,182.86,438.86L182.86,438.86z"/>
	<path d="M207.24,414.48H60.95c-13.47,0-24.38,10.92-24.38,24.38s10.92,24.38,24.38,24.38h146.29c13.47,0,24.38-10.92,24.38-24.38
		S220.7,414.48,207.24,414.48"/>
	<path d="M304.76,463.24h146.29c13.47,0,24.38-10.92,24.38-24.38s-10.92-24.38-24.38-24.38H304.76c-13.47,0-24.38,10.92-24.38,24.38
		S291.3,463.24,304.76,463.24"/>
	<path d="M256,316.95l17.24-17.24l-48.76-48.76c-4.54-4.54-10.82-7.14-17.24-7.14H134.1h0V48.76l0,0H377.9v0v195.05h-73.14
		c-6.42,0-12.7,2.6-17.24,7.14l-48.76,48.76L256,316.95l17.24-17.24L256,316.95l17.24,17.24l41.62-41.62h63.04
		c26.94-0.02,48.75-21.82,48.76-48.76V48.76C426.65,21.82,404.84,0.02,377.9,0H134.1c-26.94,0.02-48.75,21.82-48.76,48.76v195.05
		c0.02,26.94,21.82,48.75,48.76,48.76h63.04l41.62,41.62c4.54,4.54,10.82,7.14,17.24,7.14c6.42,0,12.7-2.6,17.24-7.14L256,316.95z"
		/>
	<path d="M207.24,170.67h97.52c13.47,0,24.38-10.92,24.38-24.38c0-13.47-10.92-24.38-24.38-24.38h-97.52
		c-13.47,0-24.38,10.92-24.38,24.38C182.86,159.75,193.77,170.67,207.24,170.67"/>
	<path d="M231.62,97.52v97.52c0,13.47,10.92,24.38,24.38,24.38c13.47,0,24.38-10.92,24.38-24.38V97.52
		c0-13.47-10.92-24.38-24.38-24.38C242.53,73.14,231.62,84.06,231.62,97.52"/>
</g>
</svg>
