<?xml version="1.0" encoding="utf-8"?>
<!-- Generator: Adobe Illustrator 27.7.0, SVG Export Plug-In . SVG Version: 6.00 Build 0)  -->
<svg version="1.1" id="Layer_1" xmlns="http://www.w3.org/2000/svg"
  xmlns:xlink="http://www.w3.org/1999/xlink" x="0px" y="0px"
  viewBox="0 0 512 512" style="enable-background:new 0 0 512 512;" xml:space="preserve">
<g fill="#8b5cf6">
	<path d="M51.2,128h25.6c0.03-14.13,11.47-25.57,25.6-25.6h307.2c14.13,0.03,25.57,11.47,25.6,25.6v307.2
		c-0.03,14.13-11.47,25.57-25.6,25.6H102.4c-14.13-0.03-25.57-11.47-25.6-25.6V128H51.2H25.6v307.2
		c0.02,42.43,34.37,76.78,76.8,76.8h307.2c42.43-0.02,76.78-34.37,76.8-76.8V128c-0.02-42.43-34.37-76.78-76.8-76.8H102.4
		C59.97,51.22,25.62,85.57,25.6,128H51.2z"/>
	<path d="M332.8,25.6V128c0,14.14,11.46,25.6,25.6,25.6S384,142.14,384,128V25.6C384,11.46,372.54,0,358.4,0S332.8,11.46,332.8,25.6
		"/>
	<path d="M128,25.6V128c0,14.14,11.46,25.6,25.6,25.6c14.14,0,25.6-11.46,25.6-25.6V25.6c0-14.14-11.46-25.6-25.6-25.6
		C139.46,0,128,11.46,128,25.6"/>
	<path d="M51.2,256h409.6c14.14,0,25.6-11.46,25.6-25.6s-11.46-25.6-25.6-25.6H51.2c-14.14,0-25.6,11.46-25.6,25.6
		S37.06,256,51.2,256"/>
	<path d="M204.8,358.4c0.02,28.29,22.91,51.18,51.2,51.2c28.29-0.02,51.18-22.91,51.2-51.2c-0.02-28.29-22.91-51.18-51.2-51.2
		C227.71,307.22,204.82,330.11,204.8,358.4c0,14.14,11.46,25.6,25.6,25.6s25.6-11.46,25.6-25.6v0v0h0c0-14.14-11.46-25.6-25.6-25.6
		S204.8,344.26,204.8,358.4L204.8,358.4z"/>
</g>
</svg>
