<?xml version="1.0" encoding="utf-8"?>
<!-- Generator: Adobe Illustrator 27.7.0, SVG Export Plug-In . SVG Version: 6.00 Build 0)  -->
<svg version="1.1" id="Layer_1" xmlns="http://www.w3.org/2000/svg"
  xmlns:xlink="http://www.w3.org/1999/xlink" x="0px" y="0px"
  viewBox="0 0 512 512" style="enable-background:new 0 0 512 512;" xml:space="preserve">
<g fill="#1d4ed8">
	<path d="M231.79,428.65H88.91c-13.14-0.02-23.79-10.67-23.81-23.81V119.07c0.02-13.14,10.67-23.79,23.81-23.81h285.77
		c13.14,0.02,23.79,10.67,23.81,23.81v119.07c0,13.15,10.66,23.81,23.81,23.81c13.15,0,23.81-10.66,23.81-23.81l0-119.07
		c-0.02-39.47-31.98-71.43-71.44-71.44H88.91c-39.47,0.02-71.43,31.98-71.44,71.44v285.77c0.02,39.47,31.98,71.43,71.44,71.44
		h142.88c13.15,0,23.81-10.66,23.81-23.81S244.94,428.65,231.79,428.65z"/>
	<path d="M303.23,23.81v95.26c0,13.15,10.66,23.81,23.81,23.81c13.15,0,23.81-10.66,23.81-23.81V23.81
		C350.86,10.66,340.2,0,327.05,0C313.89,0,303.23,10.66,303.23,23.81"/>
	<path d="M112.72,23.81v95.26c0,13.15,10.66,23.81,23.81,23.81c13.15,0,23.81-10.66,23.81-23.81V23.81
		C160.35,10.66,149.69,0,136.54,0C123.38,0,112.72,10.66,112.72,23.81"/>
	<path d="M41.28,238.14H422.3c13.15,0,23.81-10.66,23.81-23.81c0-13.15-10.66-23.81-23.81-23.81H41.28
		c-13.15,0-23.81,10.66-23.81,23.81C17.47,227.48,28.13,238.14,41.28,238.14"/>
	<path d="M327.07,404.84c0.02,39.47,31.98,71.43,71.44,71.44c39.47-0.02,71.43-31.98,71.44-71.44
		c-0.02-39.47-31.98-71.43-71.44-71.44C359.05,333.41,327.09,365.37,327.07,404.84c0,13.15,10.66,23.81,23.81,23.81
		c13.15,0,23.81-10.66,23.81-23.81c0.02-13.14,10.67-23.79,23.81-23.81c13.14,0.02,23.79,10.67,23.81,23.81
		c-0.02,13.14-10.67,23.79-23.81,23.81c-13.14-0.02-23.79-10.67-23.81-23.81c0-13.15-10.66-23.81-23.81-23.81
		C337.73,381.02,327.07,391.69,327.07,404.84L327.07,404.84z"/>
	<path d="M374.7,321.49v35.72c0,13.15,10.66,23.81,23.81,23.81c13.15,0,23.81-10.66,23.81-23.81v-35.72
		c0-13.15-10.66-23.81-23.81-23.81C385.36,297.67,374.7,308.34,374.7,321.49"/>
	<path d="M374.7,452.47v35.72c0,13.15,10.66,23.81,23.81,23.81c13.15,0,23.81-10.66,23.81-23.81v-35.72
		c0-13.15-10.66-23.81-23.81-23.81C385.36,428.65,374.7,439.31,374.7,452.47"/>
	<path d="M458.79,342.54l-30.93,17.86c-11.39,6.58-15.29,21.14-8.72,32.53c6.58,11.39,21.14,15.29,32.53,8.72l30.93-17.86
		c11.39-6.58,15.29-21.14,8.72-32.53S470.18,335.96,458.79,342.54"/>
	<path d="M345.39,408.02l-30.96,17.86c-11.39,6.57-15.3,21.14-8.73,32.53c6.57,11.39,21.14,15.3,32.53,8.73l30.96-17.86
		c11.39-6.57,15.3-21.14,8.73-32.53C371.35,405.36,356.78,401.45,345.39,408.02"/>
	<path d="M314.43,383.79l30.96,17.86c11.39,6.57,25.96,2.67,32.53-8.73c6.57-11.39,2.67-25.96-8.73-32.53l-30.96-17.86
		c-11.39-6.57-25.96-2.67-32.53,8.73S303.04,377.22,314.43,383.79"/>
	<path d="M427.86,449.28l30.96,17.86c11.39,6.57,25.96,2.67,32.53-8.73c6.57-11.39,2.67-25.96-8.73-32.53l-30.96-17.86
		c-11.39-6.57-25.96-2.67-32.53,8.73S416.47,442.71,427.86,449.28"/>
</g>
</svg>
