<?xml version="1.0" encoding="utf-8"?>
<!-- Generator: Adobe Illustrator 27.2.0, SVG Export Plug-In . SVG Version: 6.00 Build 0)  -->
<svg version="1.1" id="Layer_1" xmlns="http://www.w3.org/2000/svg" xmlns:xlink="http://www.w3.org/1999/xlink" x="0px" y="0px"
	 viewBox="0 0 512 512" style="enable-background:new 0 0 512 512;" xml:space="preserve">
<style type="text/css">
	.st0{fill:#212121;}
</style>
<g>
	<path class="st0" d="M166.4,0C74.5,0,0,74.5,0,166.4c0,87.75,67.92,159.63,154.05,165.95c6.51-95.48,82.82-171.79,178.3-178.3
		C326.03,67.92,254.15,0,166.4,0z M237.58,147.98l-76.8,76.8c-3.6,3.6-8.49,5.63-13.58,5.62c-5.09,0-9.98-2.03-13.58-5.63
		l-38.39-38.45c-7.49-7.5-7.48-19.66,0.02-27.15c7.5-7.49,19.66-7.48,27.15,0.02l24.82,24.85l63.21-63.21c7.5-7.5,19.66-7.5,27.15,0
		C245.07,128.32,245.07,140.48,237.58,147.98z M179.2,345.6c0-91.9,74.5-166.4,166.4-166.4S512,253.7,512,345.6S437.5,512,345.6,512
		S179.2,437.5,179.2,345.6z M287.16,287.72c-7.46,7.53-7.4,19.69,0.13,27.15l31.09,30.79l-31.16,31.16c-7.5,7.5-7.5,19.65,0,27.15
		c7.5,7.5,19.66,7.5,27.15,0l31.21-31.21l31.11,31.19c7.49,7.51,19.65,7.52,27.15,0.03c7.51-7.49,7.52-19.65,0.03-27.15l-31.1-31.17
		l31.03-30.8c7.52-7.47,7.57-19.63,0.1-27.15c-7.47-7.52-19.63-7.57-27.15-0.1l-31.18,30.96l-31.27-30.97
		C306.77,280.13,294.62,280.19,287.16,287.72z"/>
</g>
</svg>
